<svg width="161" height="18" viewBox="0 0 161 18" fill="none" xmlns="http://www.w3.org/2000/svg">
<g clip-path="url(#clip0)">
<path d="M120.785 0V18H128.595V11.4261H137.187V7.47391H128.595V3.95217H145.622V18H153.432V3.95217H160.5V0H120.785Z" fill="white"/>
<path d="M104.032 14.087V10.9565H114.224V7.04348H104.032V3.95217H117.114V0H96.2219V18H117.27V14.087H104.032Z" fill="white"/>
<path d="M21.6343 0H0V3.95217H6.91204V18H14.7223V3.95217H21.6343V0Z" fill="white"/>
<path d="M37.0594 0H28.7025L18.9397 18H24.0163L25.6174 14.9087H36.5517L38.1528 18H46.8222L37.0594 0ZM27.57 11.1913L31.2017 4.22609L34.6773 11.1913H27.57Z" fill="white"/>
<path d="M86.6152 0V9L74.1188 0H68.0659V18H73.4159V8.1L86.2637 18H91.9652V0H86.6152Z" fill="white"/>
<path d="M65.4106 0H44.2449V3.95217H51.1569V18H58.9671V3.95217H65.4106V0Z" fill="white"/>
</g>
<defs>
<clipPath id="clip0">
<path d="M0 0H160.5V18H0V0Z" fill="white"/>
</clipPath>
</defs>
</svg>
