<svg width="214" height="24" viewBox="0 0 214 24" fill="none" xmlns="http://www.w3.org/2000/svg">
<g clip-path="url(#clip0_278_73508)">
<path d="M161.047 0V24H171.46V15.2348H182.915V9.96522H171.46V5.26957H194.162V24H204.576V5.26957H214V0H161.047Z" fill="#0AA373"/>
<path d="M138.709 18.7826V14.6087H152.299V9.3913H138.709V5.26957H156.152V0H128.296V24H156.361V18.7826H138.709Z" fill="#0AA373"/>
<path d="M28.8457 0H0V5.26957H9.21606V24H19.6297V5.26957H28.8457V0Z" fill="#EE3A43"/>
<path d="M49.4125 0H38.2699L25.2529 24H32.0217L34.1565 19.8783H48.7356L50.8704 24H62.4295L49.4125 0ZM36.7599 14.9217L41.6022 5.63478L46.2363 14.9217H36.7599Z" fill="#EE3A43"/>
<path d="M115.487 0V12L98.8255 0H90.7549V24H97.8882V10.8L115.018 24H122.62V0H115.487Z" fill="#0AA373"/>
<path d="M87.2141 0H58.9932V5.26957H68.2092V24H78.6228V5.26957H87.2141V0Z" fill="#EE3A43"/>
</g>
<defs>
<clipPath id="clip0_278_73508">
<rect width="214" height="24" fill="white"/>
</clipPath>
</defs>
</svg>
